# AST/ASF file generated using VICON BodyLanguage
# -----------------------------------------------
:version 1.10
:name VICON
:units
  mass 1.0
  length 0.45
  angle deg
:documentation
   .ast/.asf automatically generated from VICON data using
   VICON BodyBuilder and BodyLanguage model FoxedUp or BRILLIANT.MOD
:root
   order TX TY TZ RX RY RZ
   axis XYZ
   position 0 0 0  
   orientation 0 -0 0 
:bonedata
  begin
     id 1 
     name lhipjoint
     direction 0.515797 -0.759363 0.396637 
     length 2.47888 
     axis 0 -0 0  XYZ
  end
  begin
     id 2 
     name lfemur
     direction 0.34202 -0.939693 0  
     length 6.81885  
     axis 0 -0 20  XYZ
    dof rx ry rz
    limits (-160.0 20.0)
           (-70.0 70.0)
           (-60.0 70.0)
  end
  begin
     id 3 
     name ltibia
     direction 0.342037 -0.939687 0   
     length 7.89258   
     axis 0 -0 20   XYZ
    dof rx
    limits (-10.0 170.0)
  end
  begin
     id 4 
     name lfoot
     direction 0.173497 -0.476678 0.861787   
     length 2.51543   
     axis -90 -1.13533e-015 20   XYZ
    dof rx rz
    limits (-45.0 90.0)
           (-70.0 20.0)
  end
  begin
     id 5 
     name ltoes
     direction 1.53564e-011 -4.21897e-011 1   
     length 1.21388   
     axis -90 -1.13533e-015 20   XYZ
    dof rx
    limits (-90.0 20.0)
  end
  begin
     id 6 
     name rhipjoint
     direction -0.489454 -0.772941 0.403729   
     length 2.43534  
     axis 0 -0 0  XYZ 
  end
  begin
     id 7 
     name rfemur
     direction -0.34202 -0.939693 0   
     length 7.10357   
     axis 0 -0 -20   XYZ
    dof rx ry rz
    limits (-160.0 20.0)
           (-70.0 70.0)
           (-70.0 60.0)
  end
  begin
     id 8 
     name rtibia
     direction -0.34202 -0.939693 0   
     length 9.16127   
     axis 0 -0 -20   XYZ
    dof rx
    limits (-10.0 170.0)
 end
 begin
     id 9 
     name rfoot
     direction -0.270974 -0.748671 0.605033   
     length 1.74894  
     axis -90 1.13533e-015 -20   XYZ
    dof rx rz
    limits (-45.0 90.0)
           (-20.0 70.0)
  end
  begin
     id 10 
     name rtoes
     direction -1.53557e-011 -4.21759e-011 1   
     length 0.787585   
     axis -90 1.13533e-015 -20   XYZ
    dof rx
    limits (-90.0 20.0)
  end
  begin
     id 11 
     name lowerback
     direction -0.0140249 0.999561 0.0260968   
     length 2.16963   
     axis 0 -0 0   XYZ
    dof rx ry rz
    limits (-20.0 45.0)
           (-30.0 30.0)
           (-30.0 30.0)
  end
  begin
     id 12 
     name upperback
     direction 0.00860018 0.999959 -0.002711   
     length 2.1726   
     axis 0 -0 0   XYZ
    dof rx ry rz
    limits (-20.0 45.0)
           (-30.0 30.0)
           (-30.0 30.0)
  end
  begin
     id 13 
     name thorax
     direction 0.015211 0.999782 -0.0143191   
     length 2.17061   
     axis 0 -0 0   XYZ
    dof rx ry rz
    limits (-20.0 45.0)
           (-30.0 30.0)
           (-30.0 30.0)
  end
  begin
     id 14 
     name lowerneck
     direction -0.0140143 0.999447 0.030145   
     length 2.26749   
     axis 0 -0 0   XYZ
    dof rx ry rz
    limits (-20.0 45.0)
           (-30.0 30.0)
           (-30.0 30.0)
  end
  begin
     id 15 
     name upperneck
     direction 0.118062 0.961438 -0.248392   
     length 2.22728   
     axis 0 -0 0   XYZ
    dof rx ry rz
    limits (-20.0 45.0)
           (-30.0 30.0)
           (-30.0 30.0)
  end
  begin
     id 16
     name head
     direction 0.0431885 0.9954 -0.085514  
     length 2.28786  
     axis 0 -0 0   XYZ
    dof rx ry rz
    limits (-20.0 45.0)
           (-30.0 30.0)
           (-30.0 30.0)
  end
  begin
     id 17 
     name lclavicle
     direction 0.912126 0.409548 0.0172323  
     length 4.31571  
     axis 0 -0 0   XYZ
    dof ry rz
    limits (-20.0 10.0)
           (0.0 20.0)
  end
  begin
     id 18 
     name lhumerus
     direction 1 -4.48977e-011 1.93091e-027   
     length 5.13658   
     axis 180 -30 -90   XYZ
    dof rx ry rz
    limits (-60.0 90.0)
           (-90.0 90.0)
           (-90.0 90.0)
  end
  begin
     id 19
     name lradius
     direction 1 -4.48916e-011 6.84018e-027   
     length 3.22473   
     axis 180 -30 -90   XYZ
    dof rx
    limits (-10.0 170.0)
  end
  begin
     id 20
     name lwrist
     direction 1 -4.48987e-011 7.01981e-027   
     length 1.61236   
     axis -4.37994e-015 90 90   XYZ
    dof ry
    limits (-180.0 0.0)
 end
  begin
     id 21 
     name lhand
     direction 1 -4.49037e-011 1.40335e-026   
     length 0.936406   
     axis -8.96029e-015 90 90   XYZ
    dof rx rz
    limits (-90.0 90.0)
           (-45.0 45.0)
  end
  begin
     id 22 
     name lfingers
     direction 1 -4.48886e-011 2.8104e-026   
     length 0.754955   
     axis -1.79203e-014 90 90   XYZ
    dof rx
    limits (0.0 90.0)
  end
  begin
     id 23
     name lthumb
     direction 0.707107 -6.34937e-011 0.707107   
     length 1.08397   
     axis -90 45 -4.48555e-014   XYZ
    dof rx rz
    limits (-45.0 45.0)
           (-45.0 45.0)
  end
  begin
     id 24 
     name rclavicle
     direction -0.947962 0.317997 0.0156638   
     length 4.86918  
     axis 0 -0 0   XYZ 
    dof ry rz
    limits (-10.0 20.0)
           (-20.0 0.0)
  end
  begin
     id 25 
     name rhumerus
     direction -1 -4.48951e-011 2.80534e-018  
     length 5.60911   
     axis 180 30 90   XYZ
    dof rx ry rz
    limits (-90.0 60.0)
           (-90.0 90.0)
           (-90.0 90.0)
  end
  begin
     id 26 
     name rradius
     direction -1 -4.4898e-011 2.11315e-027   
     length 3.38704   
     axis 180 30 90   XYZ
    dof rx
    limits (-10.0 170.0)
  end
  begin
     id 27 
     name rwrist
     direction -1 -4.48933e-011 7.02314e-027   
     length 1.69352   
     axis -4.37994e-015 -90 -90   XYZ
    dof ry
    limits (-180.0 0.0)
  end
  begin
     id 28
     name rhand
     direction -1 -4.48937e-011 1.40458e-026   
     length 0.755878   
     axis -8.96029e-015 -90 -90   XYZ
    dof rx rz
    limits (-90.0 90.0)
           (-45.0 45.0)
  end
  begin
     id 29
     name rfingers
     direction -1 -4.4901e-011 2.80737e-026   
     length 0.609409   
     axis -1.79203e-014 -90 -90   XYZ
    dof rx
    limits (0.0 90.0)
  end
  begin
     id 30
     name rthumb
     direction -0.707107 -6.34968e-011 0.707107   
     length 0.874992   
     axis -90 -45 4.48555e-014   XYZ
    dof rx rz
    limits (-45.0 45.0)
           (-45.0 45.0)
  end
:hierarchy
  begin
    root lhipjoint rhipjoint lowerback
    lhipjoint lfemur
    lfemur ltibia
    ltibia lfoot
    lfoot ltoes
    rhipjoint rfemur
    rfemur rtibia
    rtibia rfoot
    rfoot rtoes
    lowerback upperback
    upperback thorax
    thorax lowerneck lclavicle rclavicle
    lowerneck upperneck
    upperneck head
    lclavicle lhumerus
    lhumerus lradius
    lradius lwrist
    lwrist lhand lthumb
    lhand lfingers
    rclavicle rhumerus
    rhumerus rradius
    rradius rwrist
    rwrist rhand rthumb
    rhand rfingers
  end

#!OML:ASF C:\ViconDB\ViconDB\414\Spring2016\041811\Spring2016.ASF
:FULLY-SPECIFIED
:DEGREES
1
root 9.49752 18.2276 1.86862 -176.218 -2.42884 -177.766
lowerback -4.9749 1.42605 -3.49247
upperback -0.444606 2.06637 0.109058
thorax 2.20249 0.987692 2.20839
lowerneck -11.7387 2.2343 -2.90027
upperneck 21.5608 0.368042 10.2617
head 8.59692 0.579889 3.95258
rclavicle 4.44159e-014 -1.66979e-014
rhumerus -39.2427 -15.4874 -90.754
rradius 35.418
rwrist 38.5378
rhand -35.072 -13.9236
rfingers 7.12502
rthumb -8.21425 -43.744
lclavicle 4.44159e-014 -1.66979e-014
lhumerus -36.287 -1.17053 89.3412
lradius 23.1274
lwrist -37.9551
lhand -28.0502 15.6228
lfingers 7.12502
lthumb -1.43443 45.5977
rfemur 166.448 58.9794 -164.414
rtibia 30.8125
rfoot -68.3192 -44.988
rtoes -6.91771e-014
lfemur -7.82746 -6.09474 -20.3368
ltibia 24.6745
lfoot -21.6709 2.6792
ltoes -5.15349e-014
2
root 9.50053 18.2278 1.86808 -176.226 -2.43207 -177.774
lowerback -4.96139 1.40954 -3.45646
upperback -0.442039 2.04228 0.0974419
thorax 2.20077 0.976089 2.17438
lowerneck -11.7659 2.26818 -2.82328
upperneck 21.6316 0.382159 10.2703
head 8.62587 0.591944 3.94615
rclavicle -2.61278e-014 3.18055e-015
rhumerus -39.1875 -15.4021 -90.8683
rradius 35.4503
rwrist 38.5381
rhand -35.0838 -13.8672
rfingers 7.12502
rthumb -8.22567 -43.6871
lclavicle -2.61278e-014 3.18055e-015
lhumerus -36.3337 -1.16965 89.3765
lradius 23.114
lwrist -37.6571
lhand -28.0611 15.8938
lfingers 7.12502
lthumb -1.44489 45.8687
rfemur 166.405 59.0308 -164.42
rtibia 30.8672
rfoot -68.4019 -44.9238
rtoes 1.31993e-013
lfemur -7.79945 -6.0148 -20.3159
ltibia 24.6237
lfoot -21.6349 2.57009
ltoes 1.21259e-014
3
root 9.50398 18.2254 1.86745 -176.257 -2.40203 -177.98
lowerback -4.92063 1.40414 -3.6705
upperback -0.429454 2.04586 0.0601046
thorax 2.18459 0.975999 2.25498
lowerneck -11.739 2.25932 -2.80098
upperneck 21.6163 0.38179 10.2117
head 8.61621 0.587729 3.92116
rclavicle -1.92697e-014 -2.22639e-014
rhumerus -39.1388 -15.3789 -90.9352
rradius 35.5211
rwrist 38.3959
rhand -35.0109 -13.6473
rfingers 7.12502
rthumb -8.15533 -43.4699
lclavicle -1.92697e-014 -2.22639e-014
lhumerus -36.3949 -1.11356 89.3864
lradius 23.1113
lwrist -37.7082
lhand -28.0318 15.8099
lfingers 7.12502
lthumb -1.41662 45.785
rfemur 166.318 59.068 -164.705
rtibia 30.8727
rfoot -68.4724 -44.9048
rtoes 5.56597e-014
lfemur -7.74744 -6.04658 -20.5454
ltibia 24.6286
lfoot -21.6812 2.61397
ltoes 8.67695e-014
4
root 9.50674 18.227 1.8666 -176.233 -2.40006 -177.807
lowerback -4.96027 1.40256 -3.48955
upperback -0.43542 2.03468 0.119284
thorax 2.2055 0.971883 2.21502
lowerneck -11.7807 2.2565 -2.86235
upperneck 21.6374 0.405314 10.1685
head 8.62873 0.59295 3.921
rclavicle -9.13167e-015 9.54166e-015
rhumerus -39.0957 -15.2008 -91.0698
rradius 35.5903
rwrist 38.2395
rhand -35.0957 -13.619
rfingers 7.12502
rthumb -8.2371 -43.4385
lclavicle -9.13167e-015 9.54166e-015
lhumerus -36.4429 -1.07246 89.3861
lradius 23.0833
lwrist -37.8064
lhand -27.8773 15.8184
lfingers 7.12502
lthumb -1.26744 45.7944
rfemur 166.403 59.1666 -164.429
rtibia 30.8648
rfoot -68.6319 -44.9056
rtoes -5.56597e-014
lfemur -7.77891 -6.08761 -20.3402
ltibia 24.6318
lfoot -21.7059 2.6633
ltoes -2.03754e-015
5
root 9.51056 18.2279 1.86638 -176.214 -2.39369 -177.77
lowerback -4.97092 1.40388 -3.42198
upperback -0.445779 2.03273 0.120554
thorax 2.2032 0.971627 2.17848
lowerneck -11.7568 2.267 -2.85022
upperneck 21.6524 0.384288 10.2635
head 8.6307 0.589417 3.94906
rclavicle 3.14577e-014 6.36111e-015
rhumerus -39.0534 -15.1396 -91.1612
rradius 35.6069
rwrist 38.305
rhand -35.0806 -13.7112
rfingers 7.12502
rthumb -8.22254 -43.5312
lclavicle 3.14577e-014 6.36111e-015
lhumerus -36.5342 -1.19529 89.4371
lradius 23.1264
lwrist -37.6543
lhand -27.7847 15.9162
lfingers 7.12502
lthumb -1.17798 45.8926
rfemur 166.455 59.2138 -164.329
rtibia 30.8689
rfoot -68.7059 -44.9093
rtoes -6.12257e-014
lfemur -7.79428 -6.07063 -20.3002
ltibia 24.6281
lfoot -21.6823 2.72259
ltoes -2.68359e-014
6
root 9.51562 18.2291 1.86584 -176.201 -2.38618 -177.767
lowerback -4.97519 1.40751 -3.39808
upperback -0.45621 2.0361 0.109409
thorax 2.19586 0.973675 2.15377
lowerneck -11.7575 2.24889 -2.92767
upperneck 21.6483 0.36609 10.3074
head 8.62962 0.578836 3.97549
rclavicle -1.37907e-014 4.77083e-015
rhumerus -39.0227 -15.0892 -91.2581
rradius 35.6336
rwrist 38.3213
rhand -35.0371 -13.7972
rfingers 7.12502
rthumb -8.18053 -43.6188
lclavicle -1.37907e-014 4.77083e-015
lhumerus -36.6064 -1.26574 89.4391
lradius 23.1449
lwrist -37.5678
lhand -27.74 15.795
lfingers 7.12502
lthumb -1.13478 45.7717
rfemur 166.497 59.2441 -164.281
rtibia 30.8493
rfoot -68.7426 -44.8853
rtoes -3.10104e-014
lfemur -7.81396 -6.1075 -20.281
ltibia 24.6454
lfoot -21.7023 2.74738
ltoes 3.90115e-014
7
root 9.51978 18.2292 1.86591 -176.203 -2.37385 -177.784
lowerback -4.96996 1.41581 -3.39741
upperback -0.447934 2.0476 0.0904232
thorax 2.20148 0.979301 2.13457
lowerneck -11.7613 2.22875 -2.90647
upperneck 21.6341 0.337066 10.2984
head 8.62814 0.566173 3.96544
rclavicle 2.17421e-015 1.15295e-014
rhumerus -38.9416 -14.8871 -91.4015
rradius 35.672
rwrist 38.0534
rhand -35.0169 -13.8843
rfingers 7.12502
rthumb -8.16105 -43.7067
lclavicle 2.17421e-015 1.15295e-014
lhumerus -36.657 -1.38451 89.4537
lradius 23.1642
lwrist -37.4112
lhand -27.7157 15.7281
lfingers 7.12502
lthumb -1.11137 45.7049
rfemur 166.507 59.2876 -164.274
rtibia 30.8499
rfoot -68.8138 -44.8573
rtoes 3.10104e-014
lfemur -7.80962 -6.15272 -20.2889
ltibia 24.6452
lfoot -21.7117 2.79504
ltoes 4.63665e-014
8
root 9.52363 18.2283 1.86572 -176.212 -2.37588 -177.799
lowerback -4.95428 1.41595 -3.41315
upperback -0.443164 2.04818 0.100985
thorax 2.19665 0.979569 2.1539
lowerneck -11.7372 2.23029 -2.87004
upperneck 21.6393 0.325131 10.3048
head 8.62674 0.562128 3.9597
rclavicle -5.34358e-014 7.95139e-016
rhumerus -38.8856 -14.7465 -91.4973
rradius 35.7702
rwrist 37.616
rhand -34.9052 -13.924
rfingers 7.12502
rthumb -8.05325 -43.7506
lclavicle -5.34358e-014 7.95139e-016
lhumerus -36.7152 -1.41396 89.4981
lradius 23.1895
lwrist -37.3206
lhand -27.648 15.7341
lfingers 7.12502
lthumb -1.04598 45.7112
rfemur 166.483 59.3615 -164.289
rtibia 30.8541
rfoot -68.9152 -44.7871
rtoes 1.49486e-013
lfemur -7.79119 -6.20146 -20.2964
ltibia 24.6431
lfoot -21.7438 2.84401
ltoes 4.69877e-014
9
root 9.52757 18.2289 1.86518 -176.227 -2.37807 -177.772
lowerback -4.93557 1.424 -3.38569
upperback -0.43265 2.05714 0.117477
thorax 2.19682 0.984377 2.15569
lowerneck -11.7519 2.22011 -2.80354
upperneck 21.6274 0.32084 10.2234
head 8.62703 0.559472 3.91992
rclavicle 4.60311e-014 -1.90833e-014
rhumerus -38.8445 -14.7675 -91.5218
rradius 35.8191
rwrist 37.5576
rhand -34.8456 -13.8362
rfingers 7.12502
rthumb -7.99572 -43.665
lclavicle 4.60311e-014 -1.90833e-014
lhumerus -36.7448 -1.46798 89.5334
lradius 23.2059
lwrist -37.2586
lhand -27.5363 15.7636
lfingers 7.12502
lthumb -0.938014 45.7413
rfemur 166.452 59.4325 -164.262
rtibia 30.8659
rfoot -69.0087 -44.7456
rtoes -1.7016e-013
lfemur -7.77107 -6.29675 -20.2516
ltibia 24.6314
lfoot -21.7735 2.90706
ltoes -1.70458e-014
10
root 9.53184 18.2285 1.86469 -176.229 -2.373 -177.784
lowerback -4.96205 1.4348 -3.43099
upperback -0.407911 2.07541 0.154142
thorax 2.23308 0.992262 2.22127
lowerneck -11.7164 2.18358 -2.93272
upperneck 21.5723 0.293304 10.28
head 8.60193 0.541646 3.95657
rclavicle -2.86498e-014 -4.77083e-015
rhumerus -38.8118 -14.8031 -91.534
rradius 35.8602
rwrist 37.5319
rhand -34.8495 -13.6783
rfingers 7.12502
rthumb -7.99951 -43.5069
lclavicle -2.86498e-014 -4.77083e-015
lhumerus -36.7308 -1.42267 89.5714
lradius 23.1805
lwrist -37.3776
lhand -27.3884 15.8635
lfingers 7.12502
lthumb -0.7952 45.8418
rfemur 166.444 59.5135 -164.259
rtibia 30.8811
rfoot -69.0874 -44.7208
rtoes -7.15625e-015
lfemur -7.76456 -6.29102 -20.2527
ltibia 24.6222
lfoot -21.7676 2.9099
ltoes 8.4235e-014
11
root 9.53923 18.227 1.86235 -176.274 -2.44639 -177.815
lowerback -4.9048 1.41122 -3.47207
upperback -0.404837 2.04452 0.1457
thorax 2.20502 0.977115 2.23192
lowerneck -11.6633 2.20373 -2.89556
upperneck 21.5516 0.318676 10.2608
head 8.58353 0.552785 3.94441
rclavicle 2.87492e-014 9.93923e-015
rhumerus -38.8039 -14.8419 -91.5943
rradius 35.8646
rwrist 37.4793
rhand -34.8544 -13.6555
rfingers 7.12502
rthumb -8.00428 -43.4839
lclavicle 2.87492e-014 9.93923e-015
lhumerus -36.7672 -1.38272 89.5127
lradius 23.138
lwrist -37.566
lhand -27.4013 15.7537
lfingers 7.12502
lthumb -0.807696 45.7319
rfemur 166.293 59.6628 -164.382
rtibia 30.8944
rfoot -69.1626 -44.6913
rtoes -3.02153e-014
lfemur -7.70632 -6.18828 -20.2581
ltibia 24.6165
lfoot -21.6881 2.79548
ltoes -2.6339e-014
12
root 9.54373 18.2263 1.86115 -176.262 -2.44806 -177.824
lowerback -4.91401 1.41116 -3.49161
upperback -0.404519 2.04558 0.160242
thorax 2.20922 0.977347 2.2582
lowerneck -11.6688 2.19358 -2.93253
upperneck 21.5557 0.304681 10.2898
head 8.58645 0.546005 3.95955
rclavicle 3.17683e-014 -2.78299e-015
rhumerus -38.8049 -14.7493 -91.6243
rradius 35.8952
rwrist 37.4852
rhand -34.8764 -13.6744
rfingers 7.12502
rthumb -8.02547 -43.5021
lclavicle 3.17683e-014 -2.78299e-015
lhumerus -36.7688 -1.22322 89.4472
lradius 23.0575
lwrist -37.8433
lhand -27.3812 15.6806
lfingers 7.12502
lthumb -0.788297 45.6588
rfemur 166.311 59.7758 -164.351
rtibia 30.9138
rfoot -69.3246 -44.7054
rtoes -1.39944e-013
lfemur -7.70684 -6.2486 -20.2624
ltibia 24.6074
lfoot -21.7097 2.86723
ltoes -3.84648e-014
13
root 9.54856 18.2268 1.86187 -176.239 -2.4796 -177.805
lowerback -4.94564 1.41484 -3.49647
upperback -0.387835 2.05203 0.197432
thorax 2.2422 0.979781 2.30095
lowerneck -11.7394 2.16133 -2.96288
upperneck 21.6301 0.279453 10.215
head 8.62675 0.52784 3.94029
rclavicle -6.49902e-014 4.37326e-015
rhumerus -38.7673 -14.7162 -91.6168
rradius 35.9293
rwrist 37.4089
rhand -34.8192 -13.6046
rfingers 7.12502
rthumb -7.97029 -43.4344
lclavicle -6.49902e-014 4.37326e-015
lhumerus -36.7323 -1.2808 89.5447
lradius 23.0939
lwrist -37.583
lhand -27.3557 15.648
lfingers 7.12502
lthumb -0.763603 45.6264
rfemur 166.364 59.895 -164.249
rtibia 30.934
rfoot -69.4668 -44.6884
rtoes 6.99722e-014
lfemur -7.73369 -6.29869 -20.2175
ltibia 24.5951
lfoot -21.8444 2.87154
ltoes 6.00578e-014
14
root 9.55331 18.2263 1.86068 -176.225 -2.49536 -177.818
lowerback -4.97723 1.43839 -3.45392
upperback -0.356755 2.0849 0.114511
thorax 2.29442 0.995428 2.19538
lowerneck -11.7825 2.12825 -2.84451
upperneck 21.5835 0.197903 10.266
head 8.62687 0.504147 3.92846
rclavicle -6.53505e-015 -1.23246e-014
rhumerus -38.6962 -14.8855 -91.749
rradius 35.9398
rwrist 37.4341
rhand -34.8243 -13.6161
rfingers 7.12502
rthumb -7.97517 -43.4457
lclavicle -6.53505e-015 -1.23246e-014
lhumerus -36.6594 -1.3865 89.4193
lradius 23.0484
lwrist -37.7099
lhand -27.3598 15.7219
lfingers 7.12502
lthumb -0.7676 45.7002
rfemur 166.394 60.0496 -164.211
rtibia 30.9432
rfoot -69.6402 -44.6369
rtoes 1.51076e-014
lfemur -7.75159 -6.24156 -20.2072
ltibia 24.5945
lfoot -21.8254 2.81996
ltoes 5.24295e-014
